<?xml version="1.0" encoding="UTF-8" standalone="no"?>
<!DOCTYPE svg PUBLIC "-//W3C//DTD SVG 1.1//EN"
 "http://www.w3.org/Graphics/SVG/1.1/DTD/svg11.dtd">
<!-- Generated by graphviz version 14.0.0 (20250921.2048)
 -->
<!-- Pages: 1 -->
<svg width="576pt" height="277pt"
 viewBox="0.00 0.00 576.00 277.00" xmlns="http://www.w3.org/2000/svg" xmlns:xlink="http://www.w3.org/1999/xlink">
<g id="graph0" class="graph" transform="scale(0.519106 0.519106) rotate(0) translate(4 529.6)">
<polygon fill="none" stroke="none" points="-4,4 -4,-529.6 1105.6,-529.6 1105.6,4 -4,4"/>
<!-- w0_1 -->
<g id="node1" class="node">
<title>w0_1</title>
<ellipse fill="SteelBlue" stroke="Black" cx="82.8" cy="-10.8" rx="10.8" ry="10.8"/>
</g>
<!-- w0_2 -->
<g id="node52" class="node">
<title>w0_2</title>
<ellipse fill="SteelBlue" stroke="Black" cx="154.8" cy="-10.8" rx="10.8" ry="10.8"/>
</g>
<!-- w0_1&#45;&#45;w0_2 -->
<g id="edge26" class="edge">
<title>w0_1&#45;&#45;w0_2</title>
<path fill="none" stroke="SteelBlue" stroke-width="12" d="M94.05,-10.8C107.66,-10.8 130.4,-10.8 143.86,-10.8"/>
</g>
<!-- w2_14 -->
<g id="node2" class="node">
<title>w2_14</title>
<ellipse fill="SteelBlue" stroke="Black" cx="1018.8" cy="-154.8" rx="10.8" ry="10.8"/>
</g>
<!-- w3_14 -->
<g id="node30" class="node">
<title>w3_14</title>
<ellipse fill="SteelBlue" stroke="Black" cx="1018.8" cy="-226.8" rx="10.8" ry="10.8"/>
</g>
<!-- w2_14&#45;&#45;w3_14 -->
<g id="edge116" class="edge">
<title>w2_14&#45;&#45;w3_14</title>
<path fill="none" stroke="SteelBlue" stroke-width="12" d="M1018.8,-166.05C1018.8,-179.66 1018.8,-202.4 1018.8,-215.86"/>
</g>
<!-- w4_8 -->
<g id="node3" class="node">
<title>w4_8</title>
<ellipse fill="SteelBlue" stroke="Black" cx="586.8" cy="-298.8" rx="10.8" ry="10.8"/>
</g>
<!-- w2_9 -->
<g id="node4" class="node">
<title>w2_9</title>
<ellipse fill="SteelBlue" stroke="Black" cx="658.8" cy="-154.8" rx="10.8" ry="10.8"/>
</g>
<!-- w7_9 -->
<g id="node5" class="node">
<title>w7_9</title>
<ellipse fill="SteelBlue" stroke="Black" cx="658.8" cy="-514.8" rx="10.8" ry="10.8"/>
</g>
<!-- w7_2 -->
<g id="node6" class="node">
<title>w7_2</title>
<ellipse fill="SteelBlue" stroke="Black" cx="154.8" cy="-514.8" rx="10.8" ry="10.8"/>
</g>
<!-- w7_3 -->
<g id="node16" class="node">
<title>w7_3</title>
<ellipse fill="SteelBlue" stroke="Black" cx="226.8" cy="-514.8" rx="10.8" ry="10.8"/>
</g>
<!-- w7_2&#45;&#45;w7_3 -->
<g id="edge74" class="edge">
<title>w7_2&#45;&#45;w7_3</title>
<path fill="none" stroke="SteelBlue" stroke-width="12" d="M166.05,-514.8C179.66,-514.8 202.4,-514.8 215.86,-514.8"/>
</g>
<!-- w6_12 -->
<g id="node7" class="node">
<title>w6_12</title>
<ellipse fill="SteelBlue" stroke="Black" cx="874.8" cy="-442.8" rx="10.8" ry="10.8"/>
</g>
<!-- w6_13 -->
<g id="node19" class="node">
<title>w6_13</title>
<ellipse fill="SteelBlue" stroke="Black" cx="946.8" cy="-442.8" rx="10.8" ry="10.8"/>
</g>
<!-- w6_12&#45;&#45;w6_13 -->
<g id="edge10" class="edge">
<title>w6_12&#45;&#45;w6_13</title>
<path fill="none" stroke="SteelBlue" stroke-width="12" d="M886.05,-442.8C899.66,-442.8 922.4,-442.8 935.86,-442.8"/>
</g>
<!-- w5_0 -->
<g id="node8" class="node">
<title>w5_0</title>
<ellipse fill="SteelBlue" stroke="Black" cx="10.8" cy="-370.8" rx="10.8" ry="10.8"/>
</g>
<!-- w6_0 -->
<g id="node21" class="node">
<title>w6_0</title>
<ellipse fill="SteelBlue" stroke="Black" cx="10.8" cy="-442.8" rx="10.8" ry="10.8"/>
</g>
<!-- w5_0&#45;&#45;w6_0 -->
<g id="edge87" class="edge">
<title>w5_0&#45;&#45;w6_0</title>
<path fill="none" stroke="SteelBlue" stroke-width="12" d="M10.8,-382.05C10.8,-395.66 10.8,-418.4 10.8,-431.86"/>
</g>
<!-- w5_5 -->
<g id="node9" class="node">
<title>w5_5</title>
<ellipse fill="SteelBlue" stroke="Black" cx="370.8" cy="-370.8" rx="10.8" ry="10.8"/>
</g>
<!-- w0_15 -->
<g id="node10" class="node">
<title>w0_15</title>
<ellipse fill="SteelBlue" stroke="Black" cx="1090.8" cy="-10.8" rx="10.8" ry="10.8"/>
</g>
<!-- w1_15 -->
<g id="node97" class="node">
<title>w1_15</title>
<ellipse fill="SteelBlue" stroke="Black" cx="1090.8" cy="-82.8" rx="10.8" ry="10.8"/>
</g>
<!-- w0_15&#45;&#45;w1_15 -->
<g id="edge112" class="edge">
<title>w0_15&#45;&#45;w1_15</title>
<path fill="none" stroke="SteelBlue" stroke-width="12" d="M1090.8,-22.05C1090.8,-35.66 1090.8,-58.4 1090.8,-71.86"/>
</g>
<!-- w0_9 -->
<g id="node11" class="node">
<title>w0_9</title>
<ellipse fill="SteelBlue" stroke="Black" cx="658.8" cy="-10.8" rx="10.8" ry="10.8"/>
</g>
<!-- w1_9 -->
<g id="node51" class="node">
<title>w1_9</title>
<ellipse fill="SteelBlue" stroke="Black" cx="658.8" cy="-82.8" rx="10.8" ry="10.8"/>
</g>
<!-- w0_9&#45;&#45;w1_9 -->
<g id="edge30" class="edge">
<title>w0_9&#45;&#45;w1_9</title>
<path fill="none" stroke="SteelBlue" stroke-width="12" d="M658.8,-22.05C658.8,-35.66 658.8,-58.4 658.8,-71.86"/>
</g>
<!-- w1_11 -->
<g id="node12" class="node">
<title>w1_11</title>
<ellipse fill="SteelBlue" stroke="Black" cx="802.8" cy="-82.8" rx="10.8" ry="10.8"/>
</g>
<!-- w1_12 -->
<g id="node88" class="node">
<title>w1_12</title>
<ellipse fill="SteelBlue" stroke="Black" cx="874.8" cy="-82.8" rx="10.8" ry="10.8"/>
</g>
<!-- w1_11&#45;&#45;w1_12 -->
<g id="edge77" class="edge">
<title>w1_11&#45;&#45;w1_12</title>
<path fill="none" stroke="SteelBlue" stroke-width="12" d="M814.05,-82.8C827.66,-82.8 850.4,-82.8 863.86,-82.8"/>
</g>
<!-- w1_2 -->
<g id="node13" class="node">
<title>w1_2</title>
<ellipse fill="SteelBlue" stroke="Black" cx="154.8" cy="-82.8" rx="10.8" ry="10.8"/>
</g>
<!-- w1_3 -->
<g id="node44" class="node">
<title>w1_3</title>
<ellipse fill="SteelBlue" stroke="Black" cx="226.8" cy="-82.8" rx="10.8" ry="10.8"/>
</g>
<!-- w1_2&#45;&#45;w1_3 -->
<g id="edge69" class="edge">
<title>w1_2&#45;&#45;w1_3</title>
<path fill="none" stroke="SteelBlue" stroke-width="12" d="M166.05,-82.8C179.66,-82.8 202.4,-82.8 215.86,-82.8"/>
</g>
<!-- w2_6 -->
<g id="node14" class="node">
<title>w2_6</title>
<ellipse fill="SteelBlue" stroke="Black" cx="442.8" cy="-154.8" rx="10.8" ry="10.8"/>
</g>
<!-- w3_6 -->
<g id="node31" class="node">
<title>w3_6</title>
<ellipse fill="SteelBlue" stroke="Black" cx="442.8" cy="-226.8" rx="10.8" ry="10.8"/>
</g>
<!-- w2_6&#45;&#45;w3_6 -->
<g id="edge55" class="edge">
<title>w2_6&#45;&#45;w3_6</title>
<path fill="none" stroke="SteelBlue" stroke-width="12" d="M442.8,-166.05C442.8,-179.66 442.8,-202.4 442.8,-215.86"/>
</g>
<!-- w2_1 -->
<g id="node15" class="node">
<title>w2_1</title>
<ellipse fill="SteelBlue" stroke="Black" cx="82.8" cy="-154.8" rx="10.8" ry="10.8"/>
</g>
<!-- w2_2 -->
<g id="node47" class="node">
<title>w2_2</title>
<ellipse fill="SteelBlue" stroke="Black" cx="154.8" cy="-154.8" rx="10.8" ry="10.8"/>
</g>
<!-- w2_1&#45;&#45;w2_2 -->
<g id="edge59" class="edge">
<title>w2_1&#45;&#45;w2_2</title>
<path fill="none" stroke="SteelBlue" stroke-width="12" d="M94.05,-154.8C107.66,-154.8 130.4,-154.8 143.86,-154.8"/>
</g>
<!-- w7_4 -->
<g id="node112" class="node">
<title>w7_4</title>
<ellipse fill="SteelBlue" stroke="Black" cx="298.8" cy="-514.8" rx="10.8" ry="10.8"/>
</g>
<!-- w7_3&#45;&#45;w7_4 -->
<g id="edge40" class="edge">
<title>w7_3&#45;&#45;w7_4</title>
<path fill="none" stroke="SteelBlue" stroke-width="12" d="M238.05,-514.8C251.66,-514.8 274.4,-514.8 287.86,-514.8"/>
</g>
<!-- w3_13 -->
<g id="node17" class="node">
<title>w3_13</title>
<ellipse fill="SteelBlue" stroke="Black" cx="946.8" cy="-226.8" rx="10.8" ry="10.8"/>
</g>
<!-- w4_2 -->
<g id="node18" class="node">
<title>w4_2</title>
<ellipse fill="SteelBlue" stroke="Black" cx="154.8" cy="-298.8" rx="10.8" ry="10.8"/>
</g>
<!-- w4_3 -->
<g id="node59" class="node">
<title>w4_3</title>
<ellipse fill="SteelBlue" stroke="Black" cx="226.8" cy="-298.8" rx="10.8" ry="10.8"/>
</g>
<!-- w4_2&#45;&#45;w4_3 -->
<g id="edge85" class="edge">
<title>w4_2&#45;&#45;w4_3</title>
<path fill="none" stroke="SteelBlue" stroke-width="12" d="M166.05,-298.8C179.66,-298.8 202.4,-298.8 215.86,-298.8"/>
</g>
<!-- w7_13 -->
<g id="node64" class="node">
<title>w7_13</title>
<ellipse fill="SteelBlue" stroke="Black" cx="946.8" cy="-514.8" rx="10.8" ry="10.8"/>
</g>
<!-- w6_13&#45;&#45;w7_13 -->
<g id="edge119" class="edge">
<title>w6_13&#45;&#45;w7_13</title>
<path fill="none" stroke="SteelBlue" stroke-width="12" d="M946.8,-454.05C946.8,-467.66 946.8,-490.4 946.8,-503.86"/>
</g>
<!-- w3_9 -->
<g id="node20" class="node">
<title>w3_9</title>
<ellipse fill="SteelBlue" stroke="Black" cx="658.8" cy="-226.8" rx="10.8" ry="10.8"/>
</g>
<!-- w4_9 -->
<g id="node117" class="node">
<title>w4_9</title>
<ellipse fill="SteelBlue" stroke="Black" cx="658.8" cy="-298.8" rx="10.8" ry="10.8"/>
</g>
<!-- w3_9&#45;&#45;w4_9 -->
<g id="edge79" class="edge">
<title>w3_9&#45;&#45;w4_9</title>
<path fill="none" stroke="SteelBlue" stroke-width="12" d="M658.8,-238.05C658.8,-251.66 658.8,-274.4 658.8,-287.86"/>
</g>
<!-- w7_0 -->
<g id="node49" class="node">
<title>w7_0</title>
<ellipse fill="SteelBlue" stroke="Black" cx="10.8" cy="-514.8" rx="10.8" ry="10.8"/>
</g>
<!-- w6_0&#45;&#45;w7_0 -->
<g id="edge95" class="edge">
<title>w6_0&#45;&#45;w7_0</title>
<path fill="none" stroke="SteelBlue" stroke-width="12" d="M10.8,-454.05C10.8,-467.66 10.8,-490.4 10.8,-503.86"/>
</g>
<!-- w5_12 -->
<g id="node22" class="node">
<title>w5_12</title>
<ellipse fill="SteelBlue" stroke="Black" cx="874.8" cy="-370.8" rx="10.8" ry="10.8"/>
</g>
<!-- w4_7 -->
<g id="node23" class="node">
<title>w4_7</title>
<ellipse fill="SteelBlue" stroke="Black" cx="514.8" cy="-298.8" rx="10.8" ry="10.8"/>
</g>
<!-- w4_7&#45;&#45;w4_8 -->
<g id="edge32" class="edge">
<title>w4_7&#45;&#45;w4_8</title>
<path fill="none" stroke="SteelBlue" stroke-width="12" d="M526.05,-298.8C539.66,-298.8 562.4,-298.8 575.86,-298.8"/>
</g>
<!-- w2_15 -->
<g id="node24" class="node">
<title>w2_15</title>
<ellipse fill="SteelBlue" stroke="Black" cx="1090.8" cy="-154.8" rx="10.8" ry="10.8"/>
</g>
<!-- w3_15 -->
<g id="node42" class="node">
<title>w3_15</title>
<ellipse fill="SteelBlue" stroke="Black" cx="1090.8" cy="-226.8" rx="10.8" ry="10.8"/>
</g>
<!-- w2_15&#45;&#45;w3_15 -->
<g id="edge8" class="edge">
<title>w2_15&#45;&#45;w3_15</title>
<path fill="none" stroke="SteelBlue" stroke-width="12" d="M1090.8,-166.05C1090.8,-179.66 1090.8,-202.4 1090.8,-215.86"/>
</g>
<!-- w0_13 -->
<g id="node25" class="node">
<title>w0_13</title>
<ellipse fill="SteelBlue" stroke="Black" cx="946.8" cy="-10.8" rx="10.8" ry="10.8"/>
</g>
<!-- w0_14 -->
<g id="node95" class="node">
<title>w0_14</title>
<ellipse fill="SteelBlue" stroke="Black" cx="1018.8" cy="-10.8" rx="10.8" ry="10.8"/>
</g>
<!-- w0_13&#45;&#45;w0_14 -->
<g id="edge106" class="edge">
<title>w0_13&#45;&#45;w0_14</title>
<path fill="none" stroke="SteelBlue" stroke-width="12" d="M958.05,-10.8C971.66,-10.8 994.4,-10.8 1007.86,-10.8"/>
</g>
<!-- w0_10 -->
<g id="node26" class="node">
<title>w0_10</title>
<ellipse fill="SteelBlue" stroke="Black" cx="730.8" cy="-10.8" rx="10.8" ry="10.8"/>
</g>
<!-- w0_10&#45;&#45;w0_9 -->
<g id="edge65" class="edge">
<title>w0_10&#45;&#45;w0_9</title>
<path fill="none" stroke="SteelBlue" stroke-width="12" d="M719.55,-10.8C705.94,-10.8 683.2,-10.8 669.74,-10.8"/>
</g>
<!-- w0_11 -->
<g id="node63" class="node">
<title>w0_11</title>
<ellipse fill="SteelBlue" stroke="Black" cx="802.8" cy="-10.8" rx="10.8" ry="10.8"/>
</g>
<!-- w0_10&#45;&#45;w0_11 -->
<g id="edge41" class="edge">
<title>w0_10&#45;&#45;w0_11</title>
<path fill="none" stroke="SteelBlue" stroke-width="12" d="M742.05,-10.8C755.66,-10.8 778.4,-10.8 791.86,-10.8"/>
</g>
<!-- w1_7 -->
<g id="node27" class="node">
<title>w1_7</title>
<ellipse fill="SteelBlue" stroke="Black" cx="514.8" cy="-82.8" rx="10.8" ry="10.8"/>
</g>
<!-- w6_8 -->
<g id="node28" class="node">
<title>w6_8</title>
<ellipse fill="SteelBlue" stroke="Black" cx="586.8" cy="-442.8" rx="10.8" ry="10.8"/>
</g>
<!-- w0_5 -->
<g id="node29" class="node">
<title>w0_5</title>
<ellipse fill="SteelBlue" stroke="Black" cx="370.8" cy="-10.8" rx="10.8" ry="10.8"/>
</g>
<!-- w0_6 -->
<g id="node93" class="node">
<title>w0_6</title>
<ellipse fill="SteelBlue" stroke="Black" cx="442.8" cy="-10.8" rx="10.8" ry="10.8"/>
</g>
<!-- w0_5&#45;&#45;w0_6 -->
<g id="edge110" class="edge">
<title>w0_5&#45;&#45;w0_6</title>
<path fill="none" stroke="SteelBlue" stroke-width="12" d="M382.05,-10.8C395.66,-10.8 418.4,-10.8 431.86,-10.8"/>
</g>
<!-- w4_14 -->
<g id="node53" class="node">
<title>w4_14</title>
<ellipse fill="SteelBlue" stroke="Black" cx="1018.8" cy="-298.8" rx="10.8" ry="10.8"/>
</g>
<!-- w3_14&#45;&#45;w4_14 -->
<g id="edge89" class="edge">
<title>w3_14&#45;&#45;w4_14</title>
<path fill="none" stroke="SteelBlue" stroke-width="12" d="M1018.8,-238.05C1018.8,-251.66 1018.8,-274.4 1018.8,-287.86"/>
</g>
<!-- w3_7 -->
<g id="node57" class="node">
<title>w3_7</title>
<ellipse fill="SteelBlue" stroke="Black" cx="514.8" cy="-226.8" rx="10.8" ry="10.8"/>
</g>
<!-- w3_6&#45;&#45;w3_7 -->
<g id="edge54" class="edge">
<title>w3_6&#45;&#45;w3_7</title>
<path fill="none" stroke="SteelBlue" stroke-width="12" d="M454.05,-226.8C467.66,-226.8 490.4,-226.8 503.86,-226.8"/>
</g>
<!-- w2_12 -->
<g id="node32" class="node">
<title>w2_12</title>
<ellipse fill="SteelBlue" stroke="Black" cx="874.8" cy="-154.8" rx="10.8" ry="10.8"/>
</g>
<!-- w2_4 -->
<g id="node33" class="node">
<title>w2_4</title>
<ellipse fill="SteelBlue" stroke="Black" cx="298.8" cy="-154.8" rx="10.8" ry="10.8"/>
</g>
<!-- w3_4 -->
<g id="node60" class="node">
<title>w3_4</title>
<ellipse fill="SteelBlue" stroke="Black" cx="298.8" cy="-226.8" rx="10.8" ry="10.8"/>
</g>
<!-- w2_4&#45;&#45;w3_4 -->
<g id="edge16" class="edge">
<title>w2_4&#45;&#45;w3_4</title>
<path fill="none" stroke="SteelBlue" stroke-width="12" d="M298.8,-166.05C298.8,-179.66 298.8,-202.4 298.8,-215.86"/>
</g>
<!-- w5_4 -->
<g id="node34" class="node">
<title>w5_4</title>
<ellipse fill="SteelBlue" stroke="Black" cx="298.8" cy="-370.8" rx="10.8" ry="10.8"/>
</g>
<!-- w5_4&#45;&#45;w5_5 -->
<g id="edge63" class="edge">
<title>w5_4&#45;&#45;w5_5</title>
<path fill="none" stroke="SteelBlue" stroke-width="12" d="M310.05,-370.8C323.66,-370.8 346.4,-370.8 359.86,-370.8"/>
</g>
<!-- w6_4 -->
<g id="node96" class="node">
<title>w6_4</title>
<ellipse fill="SteelBlue" stroke="Black" cx="298.8" cy="-442.8" rx="10.8" ry="10.8"/>
</g>
<!-- w5_4&#45;&#45;w6_4 -->
<g id="edge70" class="edge">
<title>w5_4&#45;&#45;w6_4</title>
<path fill="none" stroke="SteelBlue" stroke-width="12" d="M298.8,-382.05C298.8,-395.66 298.8,-418.4 298.8,-431.86"/>
</g>
<!-- w6_6 -->
<g id="node35" class="node">
<title>w6_6</title>
<ellipse fill="SteelBlue" stroke="Black" cx="442.8" cy="-442.8" rx="10.8" ry="10.8"/>
</g>
<!-- w6_7 -->
<g id="node39" class="node">
<title>w6_7</title>
<ellipse fill="SteelBlue" stroke="Black" cx="514.8" cy="-442.8" rx="10.8" ry="10.8"/>
</g>
<!-- w6_6&#45;&#45;w6_7 -->
<g id="edge19" class="edge">
<title>w6_6&#45;&#45;w6_7</title>
<path fill="none" stroke="SteelBlue" stroke-width="12" d="M454.05,-442.8C467.66,-442.8 490.4,-442.8 503.86,-442.8"/>
</g>
<!-- w6_1 -->
<g id="node36" class="node">
<title>w6_1</title>
<ellipse fill="SteelBlue" stroke="Black" cx="82.8" cy="-442.8" rx="10.8" ry="10.8"/>
</g>
<!-- w6_2 -->
<g id="node48" class="node">
<title>w6_2</title>
<ellipse fill="SteelBlue" stroke="Black" cx="154.8" cy="-442.8" rx="10.8" ry="10.8"/>
</g>
<!-- w6_1&#45;&#45;w6_2 -->
<g id="edge94" class="edge">
<title>w6_1&#45;&#45;w6_2</title>
<path fill="none" stroke="SteelBlue" stroke-width="12" d="M94.05,-442.8C107.66,-442.8 130.4,-442.8 143.86,-442.8"/>
</g>
<!-- w2_11 -->
<g id="node37" class="node">
<title>w2_11</title>
<ellipse fill="SteelBlue" stroke="Black" cx="802.8" cy="-154.8" rx="10.8" ry="10.8"/>
</g>
<!-- w3_11 -->
<g id="node98" class="node">
<title>w3_11</title>
<ellipse fill="SteelBlue" stroke="Black" cx="802.8" cy="-226.8" rx="10.8" ry="10.8"/>
</g>
<!-- w2_11&#45;&#45;w3_11 -->
<g id="edge115" class="edge">
<title>w2_11&#45;&#45;w3_11</title>
<path fill="none" stroke="SteelBlue" stroke-width="12" d="M802.8,-166.05C802.8,-179.66 802.8,-202.4 802.8,-215.86"/>
</g>
<!-- w1_4 -->
<g id="node38" class="node">
<title>w1_4</title>
<ellipse fill="SteelBlue" stroke="Black" cx="298.8" cy="-82.8" rx="10.8" ry="10.8"/>
</g>
<!-- w1_5 -->
<g id="node73" class="node">
<title>w1_5</title>
<ellipse fill="SteelBlue" stroke="Black" cx="370.8" cy="-82.8" rx="10.8" ry="10.8"/>
</g>
<!-- w1_4&#45;&#45;w1_5 -->
<g id="edge4" class="edge">
<title>w1_4&#45;&#45;w1_5</title>
<path fill="none" stroke="SteelBlue" stroke-width="12" d="M310.05,-82.8C323.66,-82.8 346.4,-82.8 359.86,-82.8"/>
</g>
<!-- w6_7&#45;&#45;w6_8 -->
<g id="edge20" class="edge">
<title>w6_7&#45;&#45;w6_8</title>
<path fill="none" stroke="SteelBlue" stroke-width="12" d="M526.05,-442.8C539.66,-442.8 562.4,-442.8 575.86,-442.8"/>
</g>
<!-- w7_7 -->
<g id="node125" class="node">
<title>w7_7</title>
<ellipse fill="SteelBlue" stroke="Black" cx="514.8" cy="-514.8" rx="10.8" ry="10.8"/>
</g>
<!-- w6_7&#45;&#45;w7_7 -->
<g id="edge22" class="edge">
<title>w6_7&#45;&#45;w7_7</title>
<path fill="none" stroke="SteelBlue" stroke-width="12" d="M514.8,-454.05C514.8,-467.66 514.8,-490.4 514.8,-503.86"/>
</g>
<!-- w4_15 -->
<g id="node40" class="node">
<title>w4_15</title>
<ellipse fill="SteelBlue" stroke="Black" cx="1090.8" cy="-298.8" rx="10.8" ry="10.8"/>
</g>
<!-- w5_15 -->
<g id="node100" class="node">
<title>w5_15</title>
<ellipse fill="SteelBlue" stroke="Black" cx="1090.8" cy="-370.8" rx="10.8" ry="10.8"/>
</g>
<!-- w4_15&#45;&#45;w5_15 -->
<g id="edge29" class="edge">
<title>w4_15&#45;&#45;w5_15</title>
<path fill="none" stroke="SteelBlue" stroke-width="12" d="M1090.8,-310.05C1090.8,-323.66 1090.8,-346.4 1090.8,-359.86"/>
</g>
<!-- w4_12 -->
<g id="node41" class="node">
<title>w4_12</title>
<ellipse fill="SteelBlue" stroke="Black" cx="874.8" cy="-298.8" rx="10.8" ry="10.8"/>
</g>
<!-- w4_12&#45;&#45;w5_12 -->
<g id="edge99" class="edge">
<title>w4_12&#45;&#45;w5_12</title>
<path fill="none" stroke="SteelBlue" stroke-width="12" d="M874.8,-310.05C874.8,-323.66 874.8,-346.4 874.8,-359.86"/>
</g>
<!-- w4_13 -->
<g id="node58" class="node">
<title>w4_13</title>
<ellipse fill="SteelBlue" stroke="Black" cx="946.8" cy="-298.8" rx="10.8" ry="10.8"/>
</g>
<!-- w4_12&#45;&#45;w4_13 -->
<g id="edge100" class="edge">
<title>w4_12&#45;&#45;w4_13</title>
<path fill="none" stroke="SteelBlue" stroke-width="12" d="M886.05,-298.8C899.66,-298.8 922.4,-298.8 935.86,-298.8"/>
</g>
<!-- w3_15&#45;&#45;w4_15 -->
<g id="edge28" class="edge">
<title>w3_15&#45;&#45;w4_15</title>
<path fill="none" stroke="SteelBlue" stroke-width="12" d="M1090.8,-238.05C1090.8,-251.66 1090.8,-274.4 1090.8,-287.86"/>
</g>
<!-- w5_10 -->
<g id="node43" class="node">
<title>w5_10</title>
<ellipse fill="SteelBlue" stroke="Black" cx="730.8" cy="-370.8" rx="10.8" ry="10.8"/>
</g>
<!-- w5_11 -->
<g id="node123" class="node">
<title>w5_11</title>
<ellipse fill="SteelBlue" stroke="Black" cx="802.8" cy="-370.8" rx="10.8" ry="10.8"/>
</g>
<!-- w5_10&#45;&#45;w5_11 -->
<g id="edge3" class="edge">
<title>w5_10&#45;&#45;w5_11</title>
<path fill="none" stroke="SteelBlue" stroke-width="12" d="M742.05,-370.8C755.66,-370.8 778.4,-370.8 791.86,-370.8"/>
</g>
<!-- w2_3 -->
<g id="node70" class="node">
<title>w2_3</title>
<ellipse fill="SteelBlue" stroke="Black" cx="226.8" cy="-154.8" rx="10.8" ry="10.8"/>
</g>
<!-- w1_3&#45;&#45;w2_3 -->
<g id="edge11" class="edge">
<title>w1_3&#45;&#45;w2_3</title>
<path fill="none" stroke="SteelBlue" stroke-width="12" d="M226.8,-94.05C226.8,-107.66 226.8,-130.4 226.8,-143.86"/>
</g>
<!-- w1_8 -->
<g id="node45" class="node">
<title>w1_8</title>
<ellipse fill="SteelBlue" stroke="Black" cx="586.8" cy="-82.8" rx="10.8" ry="10.8"/>
</g>
<!-- w1_8&#45;&#45;w1_9 -->
<g id="edge31" class="edge">
<title>w1_8&#45;&#45;w1_9</title>
<path fill="none" stroke="SteelBlue" stroke-width="12" d="M598.05,-82.8C611.66,-82.8 634.4,-82.8 647.86,-82.8"/>
</g>
<!-- w2_8 -->
<g id="node83" class="node">
<title>w2_8</title>
<ellipse fill="SteelBlue" stroke="Black" cx="586.8" cy="-154.8" rx="10.8" ry="10.8"/>
</g>
<!-- w1_8&#45;&#45;w2_8 -->
<g id="edge48" class="edge">
<title>w1_8&#45;&#45;w2_8</title>
<path fill="none" stroke="SteelBlue" stroke-width="12" d="M586.8,-94.05C586.8,-107.66 586.8,-130.4 586.8,-143.86"/>
</g>
<!-- w3_5 -->
<g id="node46" class="node">
<title>w3_5</title>
<ellipse fill="SteelBlue" stroke="Black" cx="370.8" cy="-226.8" rx="10.8" ry="10.8"/>
</g>
<!-- w3_5&#45;&#45;w3_6 -->
<g id="edge53" class="edge">
<title>w3_5&#45;&#45;w3_6</title>
<path fill="none" stroke="SteelBlue" stroke-width="12" d="M382.05,-226.8C395.66,-226.8 418.4,-226.8 431.86,-226.8"/>
</g>
<!-- w4_5 -->
<g id="node101" class="node">
<title>w4_5</title>
<ellipse fill="SteelBlue" stroke="Black" cx="370.8" cy="-298.8" rx="10.8" ry="10.8"/>
</g>
<!-- w3_5&#45;&#45;w4_5 -->
<g id="edge108" class="edge">
<title>w3_5&#45;&#45;w4_5</title>
<path fill="none" stroke="SteelBlue" stroke-width="12" d="M370.8,-238.05C370.8,-251.66 370.8,-274.4 370.8,-287.86"/>
</g>
<!-- w6_2&#45;&#45;w7_2 -->
<g id="edge92" class="edge">
<title>w6_2&#45;&#45;w7_2</title>
<path fill="none" stroke="SteelBlue" stroke-width="12" d="M154.8,-454.05C154.8,-467.66 154.8,-490.4 154.8,-503.86"/>
</g>
<!-- w7_1 -->
<g id="node99" class="node">
<title>w7_1</title>
<ellipse fill="SteelBlue" stroke="Black" cx="82.8" cy="-514.8" rx="10.8" ry="10.8"/>
</g>
<!-- w7_0&#45;&#45;w7_1 -->
<g id="edge96" class="edge">
<title>w7_0&#45;&#45;w7_1</title>
<path fill="none" stroke="SteelBlue" stroke-width="12" d="M22.05,-514.8C35.66,-514.8 58.4,-514.8 71.86,-514.8"/>
</g>
<!-- w3_2 -->
<g id="node50" class="node">
<title>w3_2</title>
<ellipse fill="SteelBlue" stroke="Black" cx="154.8" cy="-226.8" rx="10.8" ry="10.8"/>
</g>
<!-- w0_2&#45;&#45;w1_2 -->
<g id="edge67" class="edge">
<title>w0_2&#45;&#45;w1_2</title>
<path fill="none" stroke="SteelBlue" stroke-width="12" d="M154.8,-22.05C154.8,-35.66 154.8,-58.4 154.8,-71.86"/>
</g>
<!-- w0_3 -->
<g id="node107" class="node">
<title>w0_3</title>
<ellipse fill="SteelBlue" stroke="Black" cx="226.8" cy="-10.8" rx="10.8" ry="10.8"/>
</g>
<!-- w0_2&#45;&#45;w0_3 -->
<g id="edge38" class="edge">
<title>w0_2&#45;&#45;w0_3</title>
<path fill="none" stroke="SteelBlue" stroke-width="12" d="M166.05,-10.8C179.66,-10.8 202.4,-10.8 215.86,-10.8"/>
</g>
<!-- w5_2 -->
<g id="node54" class="node">
<title>w5_2</title>
<ellipse fill="SteelBlue" stroke="Black" cx="154.8" cy="-370.8" rx="10.8" ry="10.8"/>
</g>
<!-- w5_2&#45;&#45;w6_2 -->
<g id="edge17" class="edge">
<title>w5_2&#45;&#45;w6_2</title>
<path fill="none" stroke="SteelBlue" stroke-width="12" d="M154.8,-382.05C154.8,-395.66 154.8,-418.4 154.8,-431.86"/>
</g>
<!-- w7_12 -->
<g id="node55" class="node">
<title>w7_12</title>
<ellipse fill="SteelBlue" stroke="Black" cx="874.8" cy="-514.8" rx="10.8" ry="10.8"/>
</g>
<!-- w7_12&#45;&#45;w7_13 -->
<g id="edge61" class="edge">
<title>w7_12&#45;&#45;w7_13</title>
<path fill="none" stroke="SteelBlue" stroke-width="12" d="M886.05,-514.8C899.66,-514.8 922.4,-514.8 935.86,-514.8"/>
</g>
<!-- w4_6 -->
<g id="node56" class="node">
<title>w4_6</title>
<ellipse fill="SteelBlue" stroke="Black" cx="442.8" cy="-298.8" rx="10.8" ry="10.8"/>
</g>
<!-- w4_13&#45;&#45;w4_14 -->
<g id="edge88" class="edge">
<title>w4_13&#45;&#45;w4_14</title>
<path fill="none" stroke="SteelBlue" stroke-width="12" d="M958.05,-298.8C971.66,-298.8 994.4,-298.8 1007.86,-298.8"/>
</g>
<!-- w5_3 -->
<g id="node78" class="node">
<title>w5_3</title>
<ellipse fill="SteelBlue" stroke="Black" cx="226.8" cy="-370.8" rx="10.8" ry="10.8"/>
</g>
<!-- w4_3&#45;&#45;w5_3 -->
<g id="edge35" class="edge">
<title>w4_3&#45;&#45;w5_3</title>
<path fill="none" stroke="SteelBlue" stroke-width="12" d="M226.8,-310.05C226.8,-323.66 226.8,-346.4 226.8,-359.86"/>
</g>
<!-- w4_4 -->
<g id="node120" class="node">
<title>w4_4</title>
<ellipse fill="SteelBlue" stroke="Black" cx="298.8" cy="-298.8" rx="10.8" ry="10.8"/>
</g>
<!-- w4_3&#45;&#45;w4_4 -->
<g id="edge86" class="edge">
<title>w4_3&#45;&#45;w4_4</title>
<path fill="none" stroke="SteelBlue" stroke-width="12" d="M238.05,-298.8C251.66,-298.8 274.4,-298.8 287.86,-298.8"/>
</g>
<!-- w3_4&#45;&#45;w3_5 -->
<g id="edge36" class="edge">
<title>w3_4&#45;&#45;w3_5</title>
<path fill="none" stroke="SteelBlue" stroke-width="12" d="M310.05,-226.8C323.66,-226.8 346.4,-226.8 359.86,-226.8"/>
</g>
<!-- w7_6 -->
<g id="node61" class="node">
<title>w7_6</title>
<ellipse fill="SteelBlue" stroke="Black" cx="442.8" cy="-514.8" rx="10.8" ry="10.8"/>
</g>
<!-- w7_6&#45;&#45;w7_7 -->
<g id="edge23" class="edge">
<title>w7_6&#45;&#45;w7_7</title>
<path fill="none" stroke="SteelBlue" stroke-width="12" d="M454.05,-514.8C467.66,-514.8 490.4,-514.8 503.86,-514.8"/>
</g>
<!-- w4_1 -->
<g id="node62" class="node">
<title>w4_1</title>
<ellipse fill="SteelBlue" stroke="Black" cx="82.8" cy="-298.8" rx="10.8" ry="10.8"/>
</g>
<!-- w0_11&#45;&#45;w1_11 -->
<g id="edge43" class="edge">
<title>w0_11&#45;&#45;w1_11</title>
<path fill="none" stroke="SteelBlue" stroke-width="12" d="M802.8,-22.05C802.8,-35.66 802.8,-58.4 802.8,-71.86"/>
</g>
<!-- w0_12 -->
<g id="node79" class="node">
<title>w0_12</title>
<ellipse fill="SteelBlue" stroke="Black" cx="874.8" cy="-10.8" rx="10.8" ry="10.8"/>
</g>
<!-- w0_11&#45;&#45;w0_12 -->
<g id="edge42" class="edge">
<title>w0_11&#45;&#45;w0_12</title>
<path fill="none" stroke="SteelBlue" stroke-width="12" d="M814.05,-10.8C827.66,-10.8 850.4,-10.8 863.86,-10.8"/>
</g>
<!-- w7_14 -->
<g id="node68" class="node">
<title>w7_14</title>
<ellipse fill="SteelBlue" stroke="Black" cx="1018.8" cy="-514.8" rx="10.8" ry="10.8"/>
</g>
<!-- w7_13&#45;&#45;w7_14 -->
<g id="edge124" class="edge">
<title>w7_13&#45;&#45;w7_14</title>
<path fill="none" stroke="SteelBlue" stroke-width="12" d="M958.05,-514.8C971.66,-514.8 994.4,-514.8 1007.86,-514.8"/>
</g>
<!-- w4_0 -->
<g id="node65" class="node">
<title>w4_0</title>
<ellipse fill="SteelBlue" stroke="Black" cx="10.8" cy="-298.8" rx="10.8" ry="10.8"/>
</g>
<!-- w4_0&#45;&#45;w5_0 -->
<g id="edge71" class="edge">
<title>w4_0&#45;&#45;w5_0</title>
<path fill="none" stroke="SteelBlue" stroke-width="12" d="M10.8,-310.05C10.8,-323.66 10.8,-346.4 10.8,-359.86"/>
</g>
<!-- w4_0&#45;&#45;w4_1 -->
<g id="edge18" class="edge">
<title>w4_0&#45;&#45;w4_1</title>
<path fill="none" stroke="SteelBlue" stroke-width="12" d="M22.05,-298.8C35.66,-298.8 58.4,-298.8 71.86,-298.8"/>
</g>
<!-- w3_8 -->
<g id="node66" class="node">
<title>w3_8</title>
<ellipse fill="SteelBlue" stroke="Black" cx="586.8" cy="-226.8" rx="10.8" ry="10.8"/>
</g>
<!-- w3_8&#45;&#45;w4_8 -->
<g id="edge122" class="edge">
<title>w3_8&#45;&#45;w4_8</title>
<path fill="none" stroke="SteelBlue" stroke-width="12" d="M586.8,-238.05C586.8,-251.66 586.8,-274.4 586.8,-287.86"/>
</g>
<!-- w3_8&#45;&#45;w3_9 -->
<g id="edge121" class="edge">
<title>w3_8&#45;&#45;w3_9</title>
<path fill="none" stroke="SteelBlue" stroke-width="12" d="M598.05,-226.8C611.66,-226.8 634.4,-226.8 647.86,-226.8"/>
</g>
<!-- w7_15 -->
<g id="node67" class="node">
<title>w7_15</title>
<ellipse fill="SteelBlue" stroke="Black" cx="1090.8" cy="-514.8" rx="10.8" ry="10.8"/>
</g>
<!-- w7_14&#45;&#45;w7_15 -->
<g id="edge52" class="edge">
<title>w7_14&#45;&#45;w7_15</title>
<path fill="none" stroke="SteelBlue" stroke-width="12" d="M1030.05,-514.8C1043.66,-514.8 1066.4,-514.8 1079.86,-514.8"/>
</g>
<!-- w5_6 -->
<g id="node69" class="node">
<title>w5_6</title>
<ellipse fill="SteelBlue" stroke="Black" cx="442.8" cy="-370.8" rx="10.8" ry="10.8"/>
</g>
<!-- w5_6&#45;&#45;w6_6 -->
<g id="edge103" class="edge">
<title>w5_6&#45;&#45;w6_6</title>
<path fill="none" stroke="SteelBlue" stroke-width="12" d="M442.8,-382.05C442.8,-395.66 442.8,-418.4 442.8,-431.86"/>
</g>
<!-- w2_3&#45;&#45;w2_4 -->
<g id="edge12" class="edge">
<title>w2_3&#45;&#45;w2_4</title>
<path fill="none" stroke="SteelBlue" stroke-width="12" d="M238.05,-154.8C251.66,-154.8 274.4,-154.8 287.86,-154.8"/>
</g>
<!-- w3_3 -->
<g id="node111" class="node">
<title>w3_3</title>
<ellipse fill="SteelBlue" stroke="Black" cx="226.8" cy="-226.8" rx="10.8" ry="10.8"/>
</g>
<!-- w2_3&#45;&#45;w3_3 -->
<g id="edge13" class="edge">
<title>w2_3&#45;&#45;w3_3</title>
<path fill="none" stroke="SteelBlue" stroke-width="12" d="M226.8,-166.05C226.8,-179.66 226.8,-202.4 226.8,-215.86"/>
</g>
<!-- w0_8 -->
<g id="node71" class="node">
<title>w0_8</title>
<ellipse fill="SteelBlue" stroke="Black" cx="586.8" cy="-10.8" rx="10.8" ry="10.8"/>
</g>
<!-- w0_8&#45;&#45;w0_9 -->
<g id="edge50" class="edge">
<title>w0_8&#45;&#45;w0_9</title>
<path fill="none" stroke="SteelBlue" stroke-width="12" d="M598.05,-10.8C611.66,-10.8 634.4,-10.8 647.86,-10.8"/>
</g>
<!-- w1_1 -->
<g id="node72" class="node">
<title>w1_1</title>
<ellipse fill="SteelBlue" stroke="Black" cx="82.8" cy="-82.8" rx="10.8" ry="10.8"/>
</g>
<!-- w1_1&#45;&#45;w1_2 -->
<g id="edge126" class="edge">
<title>w1_1&#45;&#45;w1_2</title>
<path fill="none" stroke="SteelBlue" stroke-width="12" d="M94.05,-82.8C107.66,-82.8 130.4,-82.8 143.86,-82.8"/>
</g>
<!-- w1_6 -->
<g id="node118" class="node">
<title>w1_6</title>
<ellipse fill="SteelBlue" stroke="Black" cx="442.8" cy="-82.8" rx="10.8" ry="10.8"/>
</g>
<!-- w1_5&#45;&#45;w1_6 -->
<g id="edge24" class="edge">
<title>w1_5&#45;&#45;w1_6</title>
<path fill="none" stroke="SteelBlue" stroke-width="12" d="M382.05,-82.8C395.66,-82.8 418.4,-82.8 431.86,-82.8"/>
</g>
<!-- w3_1 -->
<g id="node74" class="node">
<title>w3_1</title>
<ellipse fill="SteelBlue" stroke="Black" cx="82.8" cy="-226.8" rx="10.8" ry="10.8"/>
</g>
<!-- w3_1&#45;&#45;w3_2 -->
<g id="edge66" class="edge">
<title>w3_1&#45;&#45;w3_2</title>
<path fill="none" stroke="SteelBlue" stroke-width="12" d="M94.05,-226.8C107.66,-226.8 130.4,-226.8 143.86,-226.8"/>
</g>
<!-- w6_5 -->
<g id="node75" class="node">
<title>w6_5</title>
<ellipse fill="SteelBlue" stroke="Black" cx="370.8" cy="-442.8" rx="10.8" ry="10.8"/>
</g>
<!-- w6_5&#45;&#45;w6_6 -->
<g id="edge102" class="edge">
<title>w6_5&#45;&#45;w6_6</title>
<path fill="none" stroke="SteelBlue" stroke-width="12" d="M382.05,-442.8C395.66,-442.8 418.4,-442.8 431.86,-442.8"/>
</g>
<!-- w5_9 -->
<g id="node76" class="node">
<title>w5_9</title>
<ellipse fill="SteelBlue" stroke="Black" cx="658.8" cy="-370.8" rx="10.8" ry="10.8"/>
</g>
<!-- w5_8 -->
<g id="node77" class="node">
<title>w5_8</title>
<ellipse fill="SteelBlue" stroke="Black" cx="586.8" cy="-370.8" rx="10.8" ry="10.8"/>
</g>
<!-- w5_8&#45;&#45;w6_8 -->
<g id="edge101" class="edge">
<title>w5_8&#45;&#45;w6_8</title>
<path fill="none" stroke="SteelBlue" stroke-width="12" d="M586.8,-382.05C586.8,-395.66 586.8,-418.4 586.8,-431.86"/>
</g>
<!-- w6_3 -->
<g id="node84" class="node">
<title>w6_3</title>
<ellipse fill="SteelBlue" stroke="Black" cx="226.8" cy="-442.8" rx="10.8" ry="10.8"/>
</g>
<!-- w5_3&#45;&#45;w6_3 -->
<g id="edge34" class="edge">
<title>w5_3&#45;&#45;w6_3</title>
<path fill="none" stroke="SteelBlue" stroke-width="12" d="M226.8,-382.05C226.8,-395.66 226.8,-418.4 226.8,-431.86"/>
</g>
<!-- w0_12&#45;&#45;w0_13 -->
<g id="edge105" class="edge">
<title>w0_12&#45;&#45;w0_13</title>
<path fill="none" stroke="SteelBlue" stroke-width="12" d="M886.05,-10.8C899.66,-10.8 922.4,-10.8 935.86,-10.8"/>
</g>
<!-- w6_15 -->
<g id="node80" class="node">
<title>w6_15</title>
<ellipse fill="SteelBlue" stroke="Black" cx="1090.8" cy="-442.8" rx="10.8" ry="10.8"/>
</g>
<!-- w6_15&#45;&#45;w7_15 -->
<g id="edge51" class="edge">
<title>w6_15&#45;&#45;w7_15</title>
<path fill="none" stroke="SteelBlue" stroke-width="12" d="M1090.8,-454.05C1090.8,-467.66 1090.8,-490.4 1090.8,-503.86"/>
</g>
<!-- w4_10 -->
<g id="node81" class="node">
<title>w4_10</title>
<ellipse fill="SteelBlue" stroke="Black" cx="730.8" cy="-298.8" rx="10.8" ry="10.8"/>
</g>
<!-- w4_11 -->
<g id="node106" class="node">
<title>w4_11</title>
<ellipse fill="SteelBlue" stroke="Black" cx="802.8" cy="-298.8" rx="10.8" ry="10.8"/>
</g>
<!-- w4_10&#45;&#45;w4_11 -->
<g id="edge98" class="edge">
<title>w4_10&#45;&#45;w4_11</title>
<path fill="none" stroke="SteelBlue" stroke-width="12" d="M742.05,-298.8C755.66,-298.8 778.4,-298.8 791.86,-298.8"/>
</g>
<!-- w0_0 -->
<g id="node82" class="node">
<title>w0_0</title>
<ellipse fill="SteelBlue" stroke="Black" cx="10.8" cy="-10.8" rx="10.8" ry="10.8"/>
</g>
<!-- w0_0&#45;&#45;w0_1 -->
<g id="edge27" class="edge">
<title>w0_0&#45;&#45;w0_1</title>
<path fill="none" stroke="SteelBlue" stroke-width="12" d="M22.05,-10.8C35.66,-10.8 58.4,-10.8 71.86,-10.8"/>
</g>
<!-- w1_0 -->
<g id="node121" class="node">
<title>w1_0</title>
<ellipse fill="SteelBlue" stroke="Black" cx="10.8" cy="-82.8" rx="10.8" ry="10.8"/>
</g>
<!-- w0_0&#45;&#45;w1_0 -->
<g id="edge82" class="edge">
<title>w0_0&#45;&#45;w1_0</title>
<path fill="none" stroke="SteelBlue" stroke-width="12" d="M10.8,-22.05C10.8,-35.66 10.8,-58.4 10.8,-71.86"/>
</g>
<!-- w2_8&#45;&#45;w2_9 -->
<g id="edge80" class="edge">
<title>w2_8&#45;&#45;w2_9</title>
<path fill="none" stroke="SteelBlue" stroke-width="12" d="M598.05,-154.8C611.66,-154.8 634.4,-154.8 647.86,-154.8"/>
</g>
<!-- w6_3&#45;&#45;w7_3 -->
<g id="edge73" class="edge">
<title>w6_3&#45;&#45;w7_3</title>
<path fill="none" stroke="SteelBlue" stroke-width="12" d="M226.8,-454.05C226.8,-467.66 226.8,-490.4 226.8,-503.86"/>
</g>
<!-- w3_10 -->
<g id="node85" class="node">
<title>w3_10</title>
<ellipse fill="SteelBlue" stroke="Black" cx="730.8" cy="-226.8" rx="10.8" ry="10.8"/>
</g>
<!-- w3_10&#45;&#45;w3_9 -->
<g id="edge58" class="edge">
<title>w3_10&#45;&#45;w3_9</title>
<path fill="none" stroke="SteelBlue" stroke-width="12" d="M719.55,-226.8C705.94,-226.8 683.2,-226.8 669.74,-226.8"/>
</g>
<!-- w3_10&#45;&#45;w3_11 -->
<g id="edge57" class="edge">
<title>w3_10&#45;&#45;w3_11</title>
<path fill="none" stroke="SteelBlue" stroke-width="12" d="M742.05,-226.8C755.66,-226.8 778.4,-226.8 791.86,-226.8"/>
</g>
<!-- w7_11 -->
<g id="node86" class="node">
<title>w7_11</title>
<ellipse fill="SteelBlue" stroke="Black" cx="802.8" cy="-514.8" rx="10.8" ry="10.8"/>
</g>
<!-- w7_11&#45;&#45;w7_12 -->
<g id="edge60" class="edge">
<title>w7_11&#45;&#45;w7_12</title>
<path fill="none" stroke="SteelBlue" stroke-width="12" d="M814.05,-514.8C827.66,-514.8 850.4,-514.8 863.86,-514.8"/>
</g>
<!-- w1_14 -->
<g id="node87" class="node">
<title>w1_14</title>
<ellipse fill="SteelBlue" stroke="Black" cx="1018.8" cy="-82.8" rx="10.8" ry="10.8"/>
</g>
<!-- w1_12&#45;&#45;w2_12 -->
<g id="edge76" class="edge">
<title>w1_12&#45;&#45;w2_12</title>
<path fill="none" stroke="SteelBlue" stroke-width="12" d="M874.8,-94.05C874.8,-107.66 874.8,-130.4 874.8,-143.86"/>
</g>
<!-- w1_13 -->
<g id="node126" class="node">
<title>w1_13</title>
<ellipse fill="SteelBlue" stroke="Black" cx="946.8" cy="-82.8" rx="10.8" ry="10.8"/>
</g>
<!-- w1_12&#45;&#45;w1_13 -->
<g id="edge75" class="edge">
<title>w1_12&#45;&#45;w1_13</title>
<path fill="none" stroke="SteelBlue" stroke-width="12" d="M886.05,-82.8C899.66,-82.8 922.4,-82.8 935.86,-82.8"/>
</g>
<!-- w5_7 -->
<g id="node89" class="node">
<title>w5_7</title>
<ellipse fill="SteelBlue" stroke="Black" cx="514.8" cy="-370.8" rx="10.8" ry="10.8"/>
</g>
<!-- w5_7&#45;&#45;w6_7 -->
<g id="edge21" class="edge">
<title>w5_7&#45;&#45;w6_7</title>
<path fill="none" stroke="SteelBlue" stroke-width="12" d="M514.8,-382.05C514.8,-395.66 514.8,-418.4 514.8,-431.86"/>
</g>
<!-- w6_11 -->
<g id="node90" class="node">
<title>w6_11</title>
<ellipse fill="SteelBlue" stroke="Black" cx="802.8" cy="-442.8" rx="10.8" ry="10.8"/>
</g>
<!-- w6_11&#45;&#45;w6_12 -->
<g id="edge9" class="edge">
<title>w6_11&#45;&#45;w6_12</title>
<path fill="none" stroke="SteelBlue" stroke-width="12" d="M814.05,-442.8C827.66,-442.8 850.4,-442.8 863.86,-442.8"/>
</g>
<!-- w2_0 -->
<g id="node91" class="node">
<title>w2_0</title>
<ellipse fill="SteelBlue" stroke="Black" cx="10.8" cy="-154.8" rx="10.8" ry="10.8"/>
</g>
<!-- w2_0&#45;&#45;w2_1 -->
<g id="edge104" class="edge">
<title>w2_0&#45;&#45;w2_1</title>
<path fill="none" stroke="SteelBlue" stroke-width="12" d="M22.05,-154.8C35.66,-154.8 58.4,-154.8 71.86,-154.8"/>
</g>
<!-- w3_0 -->
<g id="node113" class="node">
<title>w3_0</title>
<ellipse fill="SteelBlue" stroke="Black" cx="10.8" cy="-226.8" rx="10.8" ry="10.8"/>
</g>
<!-- w2_0&#45;&#45;w3_0 -->
<g id="edge123" class="edge">
<title>w2_0&#45;&#45;w3_0</title>
<path fill="none" stroke="SteelBlue" stroke-width="12" d="M10.8,-166.05C10.8,-179.66 10.8,-202.4 10.8,-215.86"/>
</g>
<!-- w2_5 -->
<g id="node92" class="node">
<title>w2_5</title>
<ellipse fill="SteelBlue" stroke="Black" cx="370.8" cy="-154.8" rx="10.8" ry="10.8"/>
</g>
<!-- w2_5&#45;&#45;w3_5 -->
<g id="edge109" class="edge">
<title>w2_5&#45;&#45;w3_5</title>
<path fill="none" stroke="SteelBlue" stroke-width="12" d="M370.8,-166.05C370.8,-179.66 370.8,-202.4 370.8,-215.86"/>
</g>
<!-- w0_7 -->
<g id="node105" class="node">
<title>w0_7</title>
<ellipse fill="SteelBlue" stroke="Black" cx="514.8" cy="-10.8" rx="10.8" ry="10.8"/>
</g>
<!-- w0_6&#45;&#45;w0_7 -->
<g id="edge117" class="edge">
<title>w0_6&#45;&#45;w0_7</title>
<path fill="none" stroke="SteelBlue" stroke-width="12" d="M454.05,-10.8C467.66,-10.8 490.4,-10.8 503.86,-10.8"/>
</g>
<!-- w5_1 -->
<g id="node94" class="node">
<title>w5_1</title>
<ellipse fill="SteelBlue" stroke="Black" cx="82.8" cy="-370.8" rx="10.8" ry="10.8"/>
</g>
<!-- w5_1&#45;&#45;w6_1 -->
<g id="edge44" class="edge">
<title>w5_1&#45;&#45;w6_1</title>
<path fill="none" stroke="SteelBlue" stroke-width="12" d="M82.8,-382.05C82.8,-395.66 82.8,-418.4 82.8,-431.86"/>
</g>
<!-- w0_14&#45;&#45;w0_15 -->
<g id="edge107" class="edge">
<title>w0_14&#45;&#45;w0_15</title>
<path fill="none" stroke="SteelBlue" stroke-width="12" d="M1030.05,-10.8C1043.66,-10.8 1066.4,-10.8 1079.86,-10.8"/>
</g>
<!-- w0_14&#45;&#45;w1_14 -->
<g id="edge68" class="edge">
<title>w0_14&#45;&#45;w1_14</title>
<path fill="none" stroke="SteelBlue" stroke-width="12" d="M1018.8,-22.05C1018.8,-35.66 1018.8,-58.4 1018.8,-71.86"/>
</g>
<!-- w1_15&#45;&#45;w2_15 -->
<g id="edge7" class="edge">
<title>w1_15&#45;&#45;w2_15</title>
<path fill="none" stroke="SteelBlue" stroke-width="12" d="M1090.8,-94.05C1090.8,-107.66 1090.8,-130.4 1090.8,-143.86"/>
</g>
<!-- w3_11&#45;&#45;w4_11 -->
<g id="edge97" class="edge">
<title>w3_11&#45;&#45;w4_11</title>
<path fill="none" stroke="SteelBlue" stroke-width="12" d="M802.8,-238.05C802.8,-251.66 802.8,-274.4 802.8,-287.86"/>
</g>
<!-- w7_1&#45;&#45;w7_2 -->
<g id="edge93" class="edge">
<title>w7_1&#45;&#45;w7_2</title>
<path fill="none" stroke="SteelBlue" stroke-width="12" d="M94.05,-514.8C107.66,-514.8 130.4,-514.8 143.86,-514.8"/>
</g>
<!-- w5_15&#45;&#45;w6_15 -->
<g id="edge120" class="edge">
<title>w5_15&#45;&#45;w6_15</title>
<path fill="none" stroke="SteelBlue" stroke-width="12" d="M1090.8,-382.05C1090.8,-395.66 1090.8,-418.4 1090.8,-431.86"/>
</g>
<!-- w4_5&#45;&#45;w5_5 -->
<g id="edge64" class="edge">
<title>w4_5&#45;&#45;w5_5</title>
<path fill="none" stroke="SteelBlue" stroke-width="12" d="M370.8,-310.05C370.8,-323.66 370.8,-346.4 370.8,-359.86"/>
</g>
<!-- w4_5&#45;&#45;w4_6 -->
<g id="edge113" class="edge">
<title>w4_5&#45;&#45;w4_6</title>
<path fill="none" stroke="SteelBlue" stroke-width="12" d="M382.05,-298.8C395.66,-298.8 418.4,-298.8 431.86,-298.8"/>
</g>
<!-- w7_8 -->
<g id="node102" class="node">
<title>w7_8</title>
<ellipse fill="SteelBlue" stroke="Black" cx="586.8" cy="-514.8" rx="10.8" ry="10.8"/>
</g>
<!-- w7_8&#45;&#45;w7_9 -->
<g id="edge2" class="edge">
<title>w7_8&#45;&#45;w7_9</title>
<path fill="none" stroke="SteelBlue" stroke-width="12" d="M598.05,-514.8C611.66,-514.8 634.4,-514.8 647.86,-514.8"/>
</g>
<!-- w5_13 -->
<g id="node103" class="node">
<title>w5_13</title>
<ellipse fill="SteelBlue" stroke="Black" cx="946.8" cy="-370.8" rx="10.8" ry="10.8"/>
</g>
<!-- w5_14 -->
<g id="node114" class="node">
<title>w5_14</title>
<ellipse fill="SteelBlue" stroke="Black" cx="1018.8" cy="-370.8" rx="10.8" ry="10.8"/>
</g>
<!-- w5_13&#45;&#45;w5_14 -->
<g id="edge128" class="edge">
<title>w5_13&#45;&#45;w5_14</title>
<path fill="none" stroke="SteelBlue" stroke-width="12" d="M958.05,-370.8C971.66,-370.8 994.4,-370.8 1007.86,-370.8"/>
</g>
<!-- w6_14 -->
<g id="node104" class="node">
<title>w6_14</title>
<ellipse fill="SteelBlue" stroke="Black" cx="1018.8" cy="-442.8" rx="10.8" ry="10.8"/>
</g>
<!-- w6_14&#45;&#45;w7_14 -->
<g id="edge84" class="edge">
<title>w6_14&#45;&#45;w7_14</title>
<path fill="none" stroke="SteelBlue" stroke-width="12" d="M1018.8,-454.05C1018.8,-467.66 1018.8,-490.4 1018.8,-503.86"/>
</g>
<!-- w0_7&#45;&#45;w0_8 -->
<g id="edge49" class="edge">
<title>w0_7&#45;&#45;w0_8</title>
<path fill="none" stroke="SteelBlue" stroke-width="12" d="M526.05,-10.8C539.66,-10.8 562.4,-10.8 575.86,-10.8"/>
</g>
<!-- w4_11&#45;&#45;w5_11 -->
<g id="edge62" class="edge">
<title>w4_11&#45;&#45;w5_11</title>
<path fill="none" stroke="SteelBlue" stroke-width="12" d="M802.8,-310.05C802.8,-323.66 802.8,-346.4 802.8,-359.86"/>
</g>
<!-- w0_4 -->
<g id="node110" class="node">
<title>w0_4</title>
<ellipse fill="SteelBlue" stroke="Black" cx="298.8" cy="-10.8" rx="10.8" ry="10.8"/>
</g>
<!-- w0_3&#45;&#45;w0_4 -->
<g id="edge37" class="edge">
<title>w0_3&#45;&#45;w0_4</title>
<path fill="none" stroke="SteelBlue" stroke-width="12" d="M238.05,-10.8C251.66,-10.8 274.4,-10.8 287.86,-10.8"/>
</g>
<!-- w2_7 -->
<g id="node108" class="node">
<title>w2_7</title>
<ellipse fill="SteelBlue" stroke="Black" cx="514.8" cy="-154.8" rx="10.8" ry="10.8"/>
</g>
<!-- w2_7&#45;&#45;w3_7 -->
<g id="edge118" class="edge">
<title>w2_7&#45;&#45;w3_7</title>
<path fill="none" stroke="SteelBlue" stroke-width="12" d="M514.8,-166.05C514.8,-179.66 514.8,-202.4 514.8,-215.86"/>
</g>
<!-- w6_9 -->
<g id="node109" class="node">
<title>w6_9</title>
<ellipse fill="SteelBlue" stroke="Black" cx="658.8" cy="-442.8" rx="10.8" ry="10.8"/>
</g>
<!-- w6_9&#45;&#45;w7_9 -->
<g id="edge46" class="edge">
<title>w6_9&#45;&#45;w7_9</title>
<path fill="none" stroke="SteelBlue" stroke-width="12" d="M658.8,-454.05C658.8,-467.66 658.8,-490.4 658.8,-503.86"/>
</g>
<!-- w0_4&#45;&#45;w0_5 -->
<g id="edge45" class="edge">
<title>w0_4&#45;&#45;w0_5</title>
<path fill="none" stroke="SteelBlue" stroke-width="12" d="M310.05,-10.8C323.66,-10.8 346.4,-10.8 359.86,-10.8"/>
</g>
<!-- w0_4&#45;&#45;w1_4 -->
<g id="edge5" class="edge">
<title>w0_4&#45;&#45;w1_4</title>
<path fill="none" stroke="SteelBlue" stroke-width="12" d="M298.8,-22.05C298.8,-35.66 298.8,-58.4 298.8,-71.86"/>
</g>
<!-- w7_5 -->
<g id="node119" class="node">
<title>w7_5</title>
<ellipse fill="SteelBlue" stroke="Black" cx="370.8" cy="-514.8" rx="10.8" ry="10.8"/>
</g>
<!-- w7_4&#45;&#45;w7_5 -->
<g id="edge39" class="edge">
<title>w7_4&#45;&#45;w7_5</title>
<path fill="none" stroke="SteelBlue" stroke-width="12" d="M310.05,-514.8C323.66,-514.8 346.4,-514.8 359.86,-514.8"/>
</g>
<!-- w3_0&#45;&#45;w4_0 -->
<g id="edge72" class="edge">
<title>w3_0&#45;&#45;w4_0</title>
<path fill="none" stroke="SteelBlue" stroke-width="12" d="M10.8,-238.05C10.8,-251.66 10.8,-274.4 10.8,-287.86"/>
</g>
<!-- w3_0&#45;&#45;w3_1 -->
<g id="edge114" class="edge">
<title>w3_0&#45;&#45;w3_1</title>
<path fill="none" stroke="SteelBlue" stroke-width="12" d="M22.05,-226.8C35.66,-226.8 58.4,-226.8 71.86,-226.8"/>
</g>
<!-- w5_14&#45;&#45;w6_14 -->
<g id="edge83" class="edge">
<title>w5_14&#45;&#45;w6_14</title>
<path fill="none" stroke="SteelBlue" stroke-width="12" d="M1018.8,-382.05C1018.8,-395.66 1018.8,-418.4 1018.8,-431.86"/>
</g>
<!-- w3_12 -->
<g id="node115" class="node">
<title>w3_12</title>
<ellipse fill="SteelBlue" stroke="Black" cx="874.8" cy="-226.8" rx="10.8" ry="10.8"/>
</g>
<!-- w3_12&#45;&#45;w3_13 -->
<g id="edge15" class="edge">
<title>w3_12&#45;&#45;w3_13</title>
<path fill="none" stroke="SteelBlue" stroke-width="12" d="M886.05,-226.8C899.66,-226.8 922.4,-226.8 935.86,-226.8"/>
</g>
<!-- w3_12&#45;&#45;w4_12 -->
<g id="edge14" class="edge">
<title>w3_12&#45;&#45;w4_12</title>
<path fill="none" stroke="SteelBlue" stroke-width="12" d="M874.8,-238.05C874.8,-251.66 874.8,-274.4 874.8,-287.86"/>
</g>
<!-- w1_10 -->
<g id="node116" class="node">
<title>w1_10</title>
<ellipse fill="SteelBlue" stroke="Black" cx="730.8" cy="-82.8" rx="10.8" ry="10.8"/>
</g>
<!-- w2_10 -->
<g id="node124" class="node">
<title>w2_10</title>
<ellipse fill="SteelBlue" stroke="Black" cx="730.8" cy="-154.8" rx="10.8" ry="10.8"/>
</g>
<!-- w1_10&#45;&#45;w2_10 -->
<g id="edge127" class="edge">
<title>w1_10&#45;&#45;w2_10</title>
<path fill="none" stroke="SteelBlue" stroke-width="12" d="M730.8,-94.05C730.8,-107.66 730.8,-130.4 730.8,-143.86"/>
</g>
<!-- w4_9&#45;&#45;w5_9 -->
<g id="edge78" class="edge">
<title>w4_9&#45;&#45;w5_9</title>
<path fill="none" stroke="SteelBlue" stroke-width="12" d="M658.8,-310.05C658.8,-323.66 658.8,-346.4 658.8,-359.86"/>
</g>
<!-- w1_6&#45;&#45;w1_7 -->
<g id="edge25" class="edge">
<title>w1_6&#45;&#45;w1_7</title>
<path fill="none" stroke="SteelBlue" stroke-width="12" d="M454.05,-82.8C467.66,-82.8 490.4,-82.8 503.86,-82.8"/>
</g>
<!-- w7_5&#45;&#45;w7_6 -->
<g id="edge56" class="edge">
<title>w7_5&#45;&#45;w7_6</title>
<path fill="none" stroke="SteelBlue" stroke-width="12" d="M382.05,-514.8C395.66,-514.8 418.4,-514.8 431.86,-514.8"/>
</g>
<!-- w1_0&#45;&#45;w2_0 -->
<g id="edge81" class="edge">
<title>w1_0&#45;&#45;w2_0</title>
<path fill="none" stroke="SteelBlue" stroke-width="12" d="M10.8,-94.05C10.8,-107.66 10.8,-130.4 10.8,-143.86"/>
</g>
<!-- w2_13 -->
<g id="node122" class="node">
<title>w2_13</title>
<ellipse fill="SteelBlue" stroke="Black" cx="946.8" cy="-154.8" rx="10.8" ry="10.8"/>
</g>
<!-- w2_13&#45;&#45;w2_14 -->
<g id="edge90" class="edge">
<title>w2_13&#45;&#45;w2_14</title>
<path fill="none" stroke="SteelBlue" stroke-width="12" d="M958.05,-154.8C971.66,-154.8 994.4,-154.8 1007.86,-154.8"/>
</g>
<!-- w5_11&#45;&#45;w6_11 -->
<g id="edge33" class="edge">
<title>w5_11&#45;&#45;w6_11</title>
<path fill="none" stroke="SteelBlue" stroke-width="12" d="M802.8,-382.05C802.8,-395.66 802.8,-418.4 802.8,-431.86"/>
</g>
<!-- w2_10&#45;&#45;w2_11 -->
<g id="edge125" class="edge">
<title>w2_10&#45;&#45;w2_11</title>
<path fill="none" stroke="SteelBlue" stroke-width="12" d="M742.05,-154.8C755.66,-154.8 778.4,-154.8 791.86,-154.8"/>
</g>
<!-- w7_7&#45;&#45;w7_8 -->
<g id="edge1" class="edge">
<title>w7_7&#45;&#45;w7_8</title>
<path fill="none" stroke="SteelBlue" stroke-width="12" d="M526.05,-514.8C539.66,-514.8 562.4,-514.8 575.86,-514.8"/>
</g>
<!-- w1_13&#45;&#45;w2_13 -->
<g id="edge91" class="edge">
<title>w1_13&#45;&#45;w2_13</title>
<path fill="none" stroke="SteelBlue" stroke-width="12" d="M946.8,-94.05C946.8,-107.66 946.8,-130.4 946.8,-143.86"/>
</g>
<!-- w7_10 -->
<g id="node127" class="node">
<title>w7_10</title>
<ellipse fill="SteelBlue" stroke="Black" cx="730.8" cy="-514.8" rx="10.8" ry="10.8"/>
</g>
<!-- w7_10&#45;&#45;w7_9 -->
<g id="edge47" class="edge">
<title>w7_10&#45;&#45;w7_9</title>
<path fill="none" stroke="SteelBlue" stroke-width="12" d="M719.55,-514.8C705.94,-514.8 683.2,-514.8 669.74,-514.8"/>
</g>
<!-- w7_10&#45;&#45;w7_11 -->
<g id="edge111" class="edge">
<title>w7_10&#45;&#45;w7_11</title>
<path fill="none" stroke="SteelBlue" stroke-width="12" d="M742.05,-514.8C755.66,-514.8 778.4,-514.8 791.86,-514.8"/>
</g>
<!-- w6_10 -->
<g id="node128" class="node">
<title>w6_10</title>
<ellipse fill="SteelBlue" stroke="Black" cx="730.8" cy="-442.8" rx="10.8" ry="10.8"/>
</g>
<!-- w6_10&#45;&#45;w6_9 -->
<g id="edge6" class="edge">
<title>w6_10&#45;&#45;w6_9</title>
<path fill="none" stroke="SteelBlue" stroke-width="12" d="M719.55,-442.8C705.94,-442.8 683.2,-442.8 669.74,-442.8"/>
</g>
</g>
</svg>
